<?xml version="1.0" encoding="UTF-8" standalone="no"?>
<svg
   xmlns:dc="http://purl.org/dc/elements/1.1/"
   xmlns:cc="http://creativecommons.org/ns#"
   xmlns:rdf="http://www.w3.org/1999/02/22-rdf-syntax-ns#"
   xmlns:svg="http://www.w3.org/2000/svg"
   xmlns="http://www.w3.org/2000/svg"
   xmlns:sodipodi="http://sodipodi.sourceforge.net/DTD/sodipodi-0.dtd"
   xmlns:inkscape="http://www.inkscape.org/namespaces/inkscape"
   width="90"
   height="100"
   viewBox="0 0 23.8125 26.458333"
   version="1.1"
   id="svg8"
   sodipodi:docname="campfiresvg.svg"
   inkscape:version="1.0.1 (3bc2e813f5, 2020-09-07)">
  <defs
     id="defs2" />
  <sodipodi:namedview
     id="base"
     pagecolor="#333333"
     bordercolor="#666666"
     borderopacity="1.0"
     inkscape:pageopacity="0"
     inkscape:pageshadow="2"
     inkscape:zoom="5.4470637"
     inkscape:cx="39.703078"
     inkscape:cy="52.577495"
     inkscape:document-units="px"
     inkscape:current-layer="layer1"
     inkscape:document-rotation="0"
     showgrid="false"
     units="px"
     borderlayer="false"
     showborder="true"
     inkscape:showpageshadow="false"
     inkscape:window-width="1920"
     inkscape:window-height="991"
     inkscape:window-x="-9"
     inkscape:window-y="-9"
     inkscape:window-maximized="1"
     inkscape:snap-intersection-paths="false"
     inkscape:snap-global="true"
     inkscape:object-paths="true" />
  <metadata
     id="metadata5">
    <rdf:RDF>
      <cc:Work
         rdf:about="">
        <dc:format>image/svg+xml</dc:format>
        <dc:type
           rdf:resource="http://purl.org/dc/dcmitype/StillImage" />
        <dc:title />
      </cc:Work>
    </rdf:RDF>
  </metadata>
  <g
     inkscape:label="Layer 1"
     inkscape:groupmode="layer"
     id="layer1">
    <path
       style="fill:#ff8000;fill-opacity:1;stroke:none;stroke-width:0.30738px;stroke-linecap:butt;stroke-linejoin:miter;stroke-opacity:1"
       d="m 21.46793,15.829766 c 0,0 2.569177,-4.329744 1.039217,-7.4460568 -1.529959,-3.116313 -1.616562,-3.0060008 -1.616562,-3.0060008 0,0 0.779415,2.151083 -1.356754,4.3573224 -2.136171,2.2062382 -3.175388,3.2542022 -3.175388,3.2542022 z"
       id="path839" />
    <path
       style="fill:#ff8000;fill-opacity:1;stroke:none;stroke-width:0.30738px;stroke-linecap:butt;stroke-linejoin:miter;stroke-opacity:1"
       d="m 5.5332576,14.836959 c 0,0 -3.1176532,-2.923267 -2.6846456,-6.7014517 0.4330071,-3.7781848 1.8763652,-5.5707542 1.8763652,-5.5707542 0,0 -0.692812,2.4544413 2.0207011,5.5983324 2.7135121,3.1438905 4.0125357,8.6870665 4.0125357,8.6870665 z"
       id="path841" />
    <path
       style="fill:#ffa100;fill-opacity:1;stroke:none;stroke-width:0.30738px;stroke-linecap:butt;stroke-linejoin:miter;stroke-opacity:1"
       d="m 7.2116556,16.034237 c 0,0 -2.654408,-4.770993 -2.7501253,-6.7290313 C 4.3658144,7.3471686 4.6581869,6.657719 4.6581869,6.657719 c 0,0 0.9585727,2.9567723 2.6832763,4.770993 3.7752838,3.971231 -0.1298076,4.605525 -0.1298076,4.605525 z"
       id="path845"
       sodipodi:nodetypes="cscsc" />
    <path
       style="fill:#ffa100;fill-opacity:1;stroke:none;stroke-width:0.30738px;stroke-linecap:butt;stroke-linejoin:miter;stroke-opacity:1"
       d="m 17.244426,14.297507 c 0,0 2.276596,-0.341555 3.170127,-3.109113 0.893532,-2.7675578 1.068165,-3.254997 1.068165,-3.254997 0,0 0.782992,2.309366 -0.05124,5.522271 -0.834235,3.212907 -0.849509,3.46068 -0.849509,3.46068 z"
       id="path847" />
    <path
       style="fill:#0e0800;fill-opacity:0.3;stroke:none;stroke-width:0.30738px;stroke-linecap:butt;stroke-linejoin:miter;stroke-opacity:1"
       d="M 3.8310899,26.127103 16.276004,24.897604 11.53878,22.798024 Z"
       id="path855"
       sodipodi:nodetypes="cccc" />
    <path
       id="rect9"
       style="opacity:0.991;fill:#b98d5b;fill-opacity:1;stroke-width:0;paint-order:markers stroke fill"
       d="m 3.2539687,12.266853 19.2726923,7.846132 c 1.443993,0.618258 -0.836617,7.032113 -2.704348,6.274875 L 0.63350756,18.324204 C -1.1630751,17.740992 1.2274244,11.6323 3.2539687,12.266853 Z"
       sodipodi:nodetypes="ccccc" />
    <path
       style="fill:#9a754c;fill-opacity:1;stroke:none;stroke-width:0.315337px;stroke-linecap:butt;stroke-linejoin:miter;stroke-opacity:1"
       d="m 19.902809,26.404385 c 1.972138,0.700307 4.234721,-5.63699 2.578852,-6.291428 -1.620489,-0.640457 -4.471792,5.514851 -2.578852,6.291428 z"
       id="path849"
       sodipodi:nodetypes="csc" />
    <path
       style="fill:#0e0800;fill-opacity:0.3;stroke:none;stroke-width:0.30738px;stroke-linecap:butt;stroke-linejoin:miter;stroke-opacity:1"
       d="m 15.847053,24.717348 c -2.026452,-2.720291 4.32883,-5.565562 5.075467,-5.253364 0.01141,0.0048 -2.730119,-1.144597 -2.730119,-1.144597 l -5.12864,1.188993 -2.140643,3.139796 z"
       id="path857"
       sodipodi:nodetypes="cscccc" />
    <path
       style="fill:#ff9500;fill-opacity:1;stroke:none;stroke-width:0.30738px;stroke-linecap:butt;stroke-linejoin:miter;stroke-opacity:1"
       d="M 11.220088,17.760226 C 6.1106008,14.450867 5.8219293,8.6870673 7.2075526,5.7638002 8.5931766,2.8405332 12.201572,0 12.201572,0 c 0,0 -0.375274,4.0815428 1.183553,5.3225521 1.558827,1.2410097 1.789764,1.1582759 1.789764,1.1582759 0,0 0.577343,-0.9100737 0.663945,-1.5719455 0.0866,-0.6618719 0,-1.3237437 0,-1.3237437 0,0 3.55066,2.5647533 3.059918,6.5635622 -0.490742,3.998808 -2.771246,5.984423 -2.771246,5.984423 z"
       id="path837"
       sodipodi:nodetypes="cscscscscc" />
    <path
       style="fill:#ffb200;fill-opacity:1;stroke:none;stroke-width:0.30738px;stroke-linecap:butt;stroke-linejoin:miter;stroke-opacity:1"
       d="m 12.894384,16.381326 c 0,0 -4.3878084,-2.757799 -3.9548006,-5.984423 0.433006,-3.2266253 1.7608956,-4.4676349 1.7608956,-4.4676349 0,0 0.115471,1.6546795 1.645428,2.8956889 1.529961,1.24101 1.962966,1.461633 1.962966,1.461633 0,0 0.433008,0.05515 0.548477,-1.0755411 0.115471,-1.1306975 0.05773,-0.7170275 0.05773,-0.7170275 0,0 2.482575,1.5995236 0.837148,5.3777086 -1.645428,3.778184 -1.414491,2.895688 -1.414491,2.895688 z"
       id="path843"
       sodipodi:nodetypes="cscscscscc" />
    <path
       style="fill:#be9769;fill-opacity:1;stroke:none;stroke-width:0.30738px;stroke-linecap:butt;stroke-linejoin:miter;stroke-opacity:1"
       d="m 1.4065323,19.993376 c 0,0 17.2220317,-7.039252 18.8962567,-7.682024 2.417868,-0.928273 4.813139,5.289 2.689032,6.022984 -2.12411,0.733984 -18.0418033,7.292776 -19.1410641,7.78435 -1.5826061,0.707718 -3.79438964,-5.677366 -2.4442246,-6.12531 z"
       id="path851"
       sodipodi:nodetypes="csssc" />
    <path
       style="fill:#a47f55;fill-opacity:1;stroke:none;stroke-width:0.30738px;stroke-linecap:butt;stroke-linejoin:miter;stroke-opacity:1"
       d="m 1.3665864,20.018181 c 1.5591859,-0.647633 3.983481,5.398968 2.4443972,6.092633 -1.5562506,0.701402 -4.11656774,-5.445001 -2.4443972,-6.092633 z"
       id="path853"
       sodipodi:nodetypes="csc" />
    <circle
       id="path850"
       style="fill:#ffb200;stroke:#000000;stroke-width:0.264583"
       cx="-1.4457768"
       cy="12.726275"
       r="0" />
  </g>
</svg>
