<?xml version="1.0" encoding="UTF-8" standalone="no"?>
<svg
   xmlns:dc="http://purl.org/dc/elements/1.1/"
   xmlns:cc="http://creativecommons.org/ns#"
   xmlns:rdf="http://www.w3.org/1999/02/22-rdf-syntax-ns#"
   xmlns:svg="http://www.w3.org/2000/svg"
   xmlns="http://www.w3.org/2000/svg"
   xmlns:sodipodi="http://sodipodi.sourceforge.net/DTD/sodipodi-0.dtd"
   xmlns:inkscape="http://www.inkscape.org/namespaces/inkscape"
   version="1.0"
   width="960"
   height="540"
   id="svg2"
   sodipodi:docname="under construction sign 960x540.svg"
   inkscape:version="1.0.1 (3bc2e813f5, 2020-09-07)">
  <sodipodi:namedview
     pagecolor="#ffffff"
     bordercolor="#666666"
     borderopacity="1"
     objecttolerance="10"
     gridtolerance="10"
     guidetolerance="10"
     inkscape:pageopacity="0"
     inkscape:pageshadow="2"
     inkscape:window-width="1920"
     inkscape:window-height="1001"
     id="namedview11"
     showgrid="false"
     inkscape:zoom="0.66323051"
     inkscape:cx="424.54702"
     inkscape:cy="229.93968"
     inkscape:window-x="-9"
     inkscape:window-y="-9"
     inkscape:window-maximized="1"
     inkscape:current-layer="svg2"
     inkscape:document-rotation="0" />
  <metadata
     id="metadata7">
    <rdf:RDF>
      <cc:Work
         rdf:about="">
        <dc:format>image/svg+xml</dc:format>
        <dc:type
           rdf:resource="http://purl.org/dc/dcmitype/StillImage" />
        <dc:title />
      </cc:Work>
    </rdf:RDF>
  </metadata>
  <defs
     id="defs5" />
  <path
     d="m 492.90419,113.73252 133.55225,228.11544 c 7.62785,17.38628 3.04608,27.76738 -14.76606,28.27835 l -262.44097,-0.28719 c -8.63141,0.6496 -25.55605,-2.33269 -16.80902,-25.50533 L 466.69382,113.24972 c 5.92082,-9.73258 22.25374,-9.41597 26.21037,0.4828 z"
     id="path2384"
     style="fill:#ffff00;fill-opacity:1;fill-rule:evenodd;stroke:none" />
  <path
     d="m 492.74694,122.56482 125.46397,215.58625 c 9.75873,17.47593 8.43005,27.83326 -13.87182,26.72518 l -246.54682,-0.27142 c -13.67713,0.87908 -31.16776,0.97741 -15.79102,-24.10446 L 468.12394,122.10853 c 7.00066,-12.86208 16.13302,-13.14144 24.623,0.45629 z"
     id="path3156"
     style="fill:#ff0000;fill-opacity:1;fill-rule:evenodd;stroke:none" />
  <path
     d="m 594.68349,342.66972 c -0.3086,-0.1897 -229.07751,-3.27076 -229.36738,-2.98968 0.442,-0.39086 115.98575,-194.18498 115.74064,-194.30014 0.0117,0.1368 113.8715,197.44828 113.62674,197.28982 z"
     id="path3158"
     style="fill:#ffff00;fill-opacity:1;fill-rule:evenodd;stroke:none" />
  <g
     transform="matrix(3,0,0,3,328.22459,106.12631)"
     id="g3318">
    <path
       d="m 15.96041,76.955666 v -1.952962 h 18.586807 l -2.493711,-2.493711 c -0.698467,-0.533902 -0.431401,-1.205738 0.02418,-1.904505 l 4.71124,-6.232371 c 0.03561,-2.896597 0.988954,-5.988478 0.720893,-8.743847 -0.134098,-0.878342 0.08513,-1.050538 0.241229,-1.585805 0.598641,-1.287814 1.88665,-3.500475 2.789005,-5.104912 0.10813,-0.545749 0.362093,-1.091497 0.164483,-1.637246 -0.357377,-0.173133 -0.350579,-0.66492 -1.308588,-0.3125 -1.227893,0.703187 -2.453487,1.412697 -3.030457,3.905923 -0.86699,3.026871 -0.04288,3.024194 0.584528,3.217957 0.263058,0.302239 0.258447,0.604477 0.02156,0.906716 -0.757999,0.229028 -2.351834,0.332251 -3.098267,-0.34375 -0.751999,-1.792555 -0.688706,-4.46617 0.53359,-6.62685 0.566529,-1.174307 6.22908,-6.000761 11.790737,-5.100607 -0.347644,-1.558366 -0.918888,-2.559951 -0.592026,-4.175297 0.222293,-1.576632 0.855854,-3.932005 3.55514,-3.973266 3.537348,0.101405 4.422318,2.62876 4.377328,3.973266 0.03301,2.389668 -1.738362,3.721794 -3.923108,4.591234 -0.979924,0.624216 -0.517708,1.41675 -0.20422,2.099991 1.660353,1.032679 1.317686,2.55316 1.366244,3.747018 l 0.471405,7.542473 c 0.813933,2.409794 0.475815,4.728789 1.931144,5.998321 1.709824,1.491535 5.27716,1.819716 6.958198,3.362426 l 3.367175,-2.895771 1.683588,1.818274 c 0.875724,-0.147049 1.948651,-0.383735 1.952962,-0.134687 0.141656,-2.480097 0.950989,-4.654176 5.050762,-5.320136 l 2.977645,0.25 c 4.534017,5.719432 7.503483,11.438863 10.053323,17.158295 L 54.27511,76.973707 54.24386,75.008089 c 1.586187,-1.992436 3.211469,-3.613728 5.792869,-4.113344 -0.467648,-0.364561 -0.230394,-1.519808 -0.254844,-1.421711 l -2.096637,-1.271563 1.375,-1.212649 -8.990357,-5.353808 C 49.183098,60.222761 48.374712,58.505672 47.857013,56.752615 47.44795,54.733788 47.558888,53.160961 47.409826,51.365134 l -2.559053,4.848733 2.289679,2.828427 0.842652,1.239195 1.447027,2.12798 0.269374,9.42809 1.212183,1.077496 c 0.653773,1.337968 0.101101,1.54231 -0.171718,2.108117 l -5.851619,0.03516 -0.0039,-10.15715 c -0.746276,-1.883992 -1.244188,-3.767983 -3.26317,-5.651975 l -0.38791,5.786662 -4.564828,7.273099 0.404061,2.794755 17.167203,-0.101015 0.03906,1.981671 -38.318453,-0.02871 z"
       id="path3160"
       style="fill:#000000;fill-opacity:1;fill-rule:evenodd;stroke:none" />
    <path
       d="m 36.327611,53.882098 c 0.707107,0.441942 23.5113,12.109203 23.5113,12.109203 L 59.220193,67.051962 35.708892,55.119535 Z"
       id="path3316"
       style="fill:#000000;fill-opacity:1;fill-rule:evenodd;stroke:none" />
  </g>
  <text
     xml:space="preserve"
     style="font-size:50px;line-height:1.25;font-family:sans-serif;fill:#ffff00;fill-opacity:1;"
     x="290.04639"
     y="423.4733"
     id="text837"><tspan
       sodipodi:role="line"
       id="tspan835"
       x="290.04639"
       y="423.4733"
       style="font-style:normal;font-variant:normal;font-weight:bold;font-stretch:normal;font-family:Roboto;-inkscape-font-specification:'Roboto Bold';fill:#ffff00;fill-opacity:1;">Work in progress</tspan></text>
</svg>
